<?xml version="1.0" encoding="utf-8"?>
<!-- Generator: Adobe Illustrator 23.0.1, SVG Export Plug-In . SVG Version: 6.00 Build 0)  -->
<svg version="1.1" id="Calque_1" xmlns="http://www.w3.org/2000/svg" xmlns:xlink="http://www.w3.org/1999/xlink" x="0px" y="0px"
	 viewBox="0 0 129.5 161.5" style="enable-background:new 0 0 129.5 161.5;" xml:space="preserve">
<style type="text/css">
	.st0{fill:#FFFFFF;}
</style>
<title>illustration3</title>
<g>
	<path class="st0" d="M54.8,8.7h2.8l2.1,13.1h-2.1l-0.4-2.6v0H55l-0.4,2.6h-1.9L54.8,8.7z M53.8,5.7H56l1.3,2.2h-1.6L53.8,5.7z
		 M57.1,17.5L56.1,11h0l-0.9,6.5H57.1z"/>
	<path class="st0" d="M63.8,8.7h2.1V20h3.4v1.9h-5.5V8.7z"/>
	<path class="st0" d="M71.9,8.7h2.8l2.1,13.1h-2.1l-0.4-2.6v0H72l-0.4,2.6h-1.9L71.9,8.7z M74.1,17.5L73.2,11h0l-0.9,6.5H74.1z"/>
</g>
<g>
	<path class="st0" d="M26.4,29.7h9.4L42,75.7h0.2l6.1-46.1h8.6l-9,59.4H35.4L26.4,29.7z"/>
	<path class="st0" d="M61.3,29.7h9.3v59.4h-9.3V29.7z"/>
	<path class="st0" d="M77.6,29.7h25.5v8.5H86.9v15.7h12.8v8.5H86.9v18.3h16.1v8.5H77.6V29.7z"/>
</g>
<g>
	<path class="st0" d="M0.1,119.8h6v32.7H16v5.5H0.1V119.8z"/>
	<path class="st0" d="M18.9,119.8h6V158h-6C18.9,158,18.9,119.8,18.9,119.8z"/>
	<path class="st0" d="M29.4,119.8h9.1c3.1,0,5.4,0.7,6.8,2.2c1.4,1.4,2.1,3.6,2.1,6.6v1.5c0,2-0.3,3.6-1,4.8
		c-0.6,1.2-1.6,2.1-2.9,2.7v0.1c3,1,4.5,3.7,4.5,8v3.3c0,2.9-0.8,5.2-2.3,6.7c-1.5,1.5-3.8,2.3-6.8,2.3h-9.4L29.4,119.8L29.4,119.8z
		 M37.7,135.4c1.2,0,2.1-0.3,2.7-0.9c0.6-0.6,0.9-1.7,0.9-3.1v-2.1c0-1.4-0.2-2.4-0.7-3c-0.5-0.6-1.3-0.9-2.3-0.9h-2.9v10.1
		L37.7,135.4L37.7,135.4z M38.8,152.6c1.1,0,1.8-0.3,2.3-0.8c0.5-0.6,0.8-1.5,0.8-2.9v-3.3c0-1.7-0.3-2.9-0.9-3.6
		c-0.6-0.7-1.6-1-3-1h-2.7v11.7L38.8,152.6L38.8,152.6z"/>
	<path class="st0" d="M51.4,119.8h16.4v5.5H57.4v10.1h8.2v5.5h-8.2v11.7h10.4v5.4H51.4L51.4,119.8L51.4,119.8z"/>
	<path class="st0" d="M71.2,119.8h8.9c3.1,0,5.4,0.7,6.8,2.2c1.4,1.4,2.1,3.6,2.1,6.6v2.3c0,4-1.3,6.5-3.9,7.5v0.1
		c1.4,0.4,2.5,1.3,3.1,2.7c0.6,1.4,0.9,3.2,0.9,5.4v6.7c0,1.1,0,2,0.1,2.6s0.3,1.3,0.5,2h-6.1c-0.2-0.6-0.4-1.2-0.4-1.7
		c-0.1-0.5-0.1-1.5-0.1-2.9v-7c0-1.7-0.3-3-0.8-3.7c-0.6-0.7-1.5-1-2.9-1h-2.1V158h-6V119.8z M79.4,136.2c1.2,0,2.1-0.3,2.7-0.9
		s0.9-1.7,0.9-3.1v-2.9c0-1.4-0.2-2.4-0.7-3c-0.5-0.6-1.3-0.9-2.3-0.9h-2.8v10.9L79.4,136.2L79.4,136.2z"/>
	<path class="st0" d="M97.8,125.3h-6.3v-5.5h18.6v5.5h-6.3V158h-6V125.3z"/>
	<path class="st0" d="M113,119.8h16.4v5.5H119v10.1h8.2v5.5H119v11.7h10.4v5.4H113V119.8z M121.7,111h6.6l-5.8,6.3h-4.5L121.7,111z"
		/>
</g>
<g>
	<path class="st0" d="M54.8,98.7h2.8l2.1,13.1h-2.1l-0.4-2.6v0H55l-0.4,2.6h-1.9L54.8,98.7z M53.8,95.7H56l1.3,2.2h-1.6L53.8,95.7z
		 M57.1,107.5l-0.9-6.5h0l-0.9,6.5H57.1z"/>
	<path class="st0" d="M63.8,98.7h2.1V110h3.4v1.9h-5.5V98.7z"/>
	<path class="st0" d="M71.9,98.7h2.8l2.1,13.1h-2.1l-0.4-2.6v0H72l-0.4,2.6h-1.9L71.9,98.7z M74.1,107.5l-0.9-6.5h0l-0.9,6.5H74.1z"
		/>
</g>
</svg>
