<?xml version="1.0" encoding="utf-8"?>
<!-- Generator: Adobe Illustrator 23.0.1, SVG Export Plug-In . SVG Version: 6.00 Build 0)  -->
<svg version="1.1" id="Calque_1" xmlns="http://www.w3.org/2000/svg" xmlns:xlink="http://www.w3.org/1999/xlink" x="0px" y="0px"
	 viewBox="0 0 129.5 148.3" style="enable-background:new 0 0 129.5 148.3;" xml:space="preserve">
<style type="text/css">
	.st0{fill:#FFFFFF;}
</style>
<title>illustration3</title>
<g>
	<path class="st0" d="M0.1,14.4h8.6v54.6H0.1V14.4z"/>
	<path class="st0" d="M15,14.4h13.1c4.3,0,7.4,1.1,9.6,3.4s3.2,5.6,3.2,10.1v27.6c0,4.4-1.1,7.8-3.2,10.1c-2.1,2.3-5.3,3.4-9.6,3.4
		H15V14.4z M28,61.1c1.4,0,2.5-0.4,3.2-1.2c0.8-0.8,1.1-2.2,1.1-4.1V27.5c0-1.9-0.4-3.2-1.1-4.1c-0.8-0.8-1.8-1.2-3.2-1.2h-4.4v39
		L28,61.1L28,61.1z"/>
	<path class="st0" d="M46.7,14.4h23.4v7.8H55.3v14.4H67v7.8H55.3v16.8h14.8v7.8H46.7V14.4z M59.2,1.7h9.4l-8.4,9h-6.5L59.2,1.7z"/>
	<path class="st0" d="M81.6,14.4h11.6l8.9,54.6h-8.6L92,58.1v0.2h-9.8l-1.6,10.7h-8L81.6,14.4z M91,50.8l-3.8-27H87l-3.7,27H91z"/>
	<path class="st0" d="M106.3,14.4h8.6v46.8h14.1v7.8h-22.7V14.4z"/>
</g>
<g>
	<path class="st0" d="M4,98.6H9l3.9,25.8H9.2l-0.7-5.1v0.1H4.2l-0.7,5H0.1L4,98.6z M2.1,92.6h4.1l2.4,4.2H5.7L2.1,92.6z M8,115.9
		l-1.7-12.8H6.3l-1.6,12.8H8z"/>
	<path class="st0" d="M23.1,98.6h5.1l3.9,25.8h-3.8l-0.7-5.1v0.1h-4.3l-0.7,5h-3.5L23.1,98.6z M27.2,115.9l-1.7-12.8h-0.1l-1.6,12.8
		H27.2z"/>
	<path class="st0" d="M35.3,102.3h-3.9v-3.7H43v3.7H39v22.1h-3.8L35.3,102.3L35.3,102.3z"/>
	<path class="st0" d="M48.1,102.3h-3.9v-3.7h11.6v3.7h-3.9v22.1h-3.8L48.1,102.3L48.1,102.3z"/>
	<path class="st0" d="M57.5,98.6h10.2v3.7h-6.5v6.8h5.2v3.7h-5.2v7.9h6.5v3.7H57.5V98.6z"/>
	<path class="st0" d="M69.9,98.6h3.8v25.8h-3.8V98.6z"/>
	<path class="st0" d="M76.5,98.6h4.7l3.7,15.5h0.1V98.6h3.3v25.8h-3.9l-4.5-18.9h-0.1v18.9h-3.3V98.6z"/>
	<path class="st0" d="M91.1,98.6h5.7c1.9,0,3.3,0.5,4.2,1.6c0.9,1.1,1.4,2.7,1.4,4.8V118c0,2.1-0.5,3.7-1.4,4.8
		c-0.9,1.1-2.3,1.6-4.2,1.6h-5.7V98.6z M96.7,120.7c0.6,0,1.1-0.2,1.4-0.6c0.3-0.4,0.5-1,0.5-1.9v-13.4c0-0.9-0.2-1.5-0.5-1.9
		c-0.3-0.4-0.8-0.6-1.4-0.6h-1.9v18.4L96.7,120.7L96.7,120.7z"/>
	<path class="st0" d="M104.9,98.6h5.6c1.9,0,3.3,0.5,4.2,1.5c0.9,1,1.3,2.5,1.3,4.5v1.6c0,2.7-0.8,4.4-2.5,5.1v0.1
		c0.9,0.3,1.6,0.9,1.9,1.8c0.4,0.9,0.6,2.1,0.6,3.7v4.5c0,0.7,0,1.3,0.1,1.8c0,0.5,0.2,0.9,0.3,1.4h-3.8c-0.1-0.4-0.2-0.8-0.3-1.2
		c0-0.4-0.1-1-0.1-2v-4.7c0-1.2-0.2-2-0.5-2.5c-0.4-0.5-1-0.7-1.8-0.7h-1.3v11.1h-3.8V98.6z M110.1,109.6c0.8,0,1.3-0.2,1.7-0.6
		s0.6-1.1,0.6-2.1v-2c0-0.9-0.2-1.6-0.5-2c-0.3-0.4-0.8-0.6-1.4-0.6h-1.7v7.4L110.1,109.6L110.1,109.6z"/>
	<path class="st0" d="M118.7,98.6H129v3.7h-6.5v6.8h5.2v3.7h-5.2v7.9h6.5v3.7h-10.2V98.6z"/>
</g>
<g>
	<path class="st0" d="M38.4,133.2h3c1,0,1.8,0.3,2.3,0.8c0.5,0.5,0.8,1.4,0.8,2.4v1.3c0,1.1-0.3,1.9-0.8,2.4
		c-0.5,0.5-1.3,0.8-2.3,0.8h-1v5.3h-2.1V133.2z M41.4,139.1c0.3,0,0.6-0.1,0.8-0.3c0.2-0.2,0.3-0.5,0.3-1v-1.6c0-0.5-0.1-0.8-0.3-1
		c-0.2-0.2-0.4-0.3-0.8-0.3h-1v4H41.4z"/>
	<path class="st0" d="M46.6,133.2h2.8l2.1,13.1h-2.1l-0.4-2.6v0h-2.3l-0.4,2.6h-1.9L46.6,133.2z M48.8,142l-0.9-6.5h0l-0.9,6.5H48.8
		z"/>
	<path class="st0" d="M52.5,133.2h3.1c1.1,0,1.8,0.2,2.3,0.8c0.5,0.5,0.7,1.3,0.7,2.3v0.8c0,1.4-0.5,2.2-1.4,2.6v0
		c0.5,0.2,0.8,0.5,1.1,0.9c0.2,0.5,0.3,1.1,0.3,1.9v2.3c0,0.4,0,0.7,0,0.9c0,0.2,0.1,0.5,0.2,0.7h-2.1c-0.1-0.2-0.1-0.4-0.2-0.6
		c0-0.2,0-0.5,0-1v-2.4c0-0.6-0.1-1-0.3-1.3c-0.2-0.2-0.5-0.4-1-0.4h-0.7v5.6h-2.1L52.5,133.2L52.5,133.2z M55.3,138.9
		c0.4,0,0.7-0.1,0.9-0.3c0.2-0.2,0.3-0.6,0.3-1.1v-1c0-0.5-0.1-0.8-0.3-1c-0.2-0.2-0.4-0.3-0.8-0.3h-0.9v3.8H55.3L55.3,138.9z"/>
	<path class="st0" d="M64.7,135.1h-2.2v-1.9h6.4v1.9h-2.2v11.3h-2.1V135.1z"/>
	<path class="st0" d="M70.5,145.7c-0.5-0.6-0.8-1.4-0.8-2.4v-6.9c0-1.1,0.3-1.9,0.8-2.4s1.3-0.9,2.3-0.9s1.8,0.3,2.3,0.9
		s0.8,1.4,0.8,2.4v6.9c0,1.1-0.3,1.9-0.8,2.4c-0.5,0.6-1.3,0.9-2.3,0.9S71,146.3,70.5,145.7z M73.9,143.4v-7.2
		c0-0.9-0.4-1.3-1.1-1.3s-1.1,0.4-1.1,1.3v7.2c0,0.9,0.4,1.3,1.1,1.3S73.9,144.2,73.9,143.4z"/>
	<path class="st0" d="M78,145.7c-0.5-0.6-0.8-1.4-0.8-2.4v-10h2.1v10.2c0,0.5,0.1,0.8,0.3,1c0.2,0.2,0.5,0.3,0.8,0.3
		c0.3,0,0.6-0.1,0.8-0.3c0.2-0.2,0.3-0.5,0.3-1v-10.2h2v10c0,1.1-0.3,1.9-0.8,2.4c-0.5,0.6-1.3,0.8-2.3,0.8
		C79.3,146.6,78.5,146.3,78,145.7z"/>
	<path class="st0" d="M85.3,145.7c-0.5-0.6-0.8-1.4-0.8-2.4v-0.8h2v0.9c0,0.8,0.4,1.3,1.1,1.3c0.4,0,0.6-0.1,0.8-0.3
		c0.2-0.2,0.3-0.5,0.3-1c0-0.5-0.1-1-0.4-1.5c-0.2-0.4-0.7-0.9-1.4-1.5c-0.8-0.8-1.4-1.4-1.8-2c-0.3-0.6-0.5-1.3-0.5-2.1
		c0-1,0.3-1.8,0.8-2.4c0.5-0.6,1.3-0.8,2.3-0.8s1.7,0.3,2.3,0.8c0.5,0.6,0.8,1.4,0.8,2.5v0.5h-2v-0.7c0-0.5-0.1-0.8-0.3-1
		c-0.2-0.2-0.4-0.3-0.8-0.3c-0.7,0-1,0.4-1,1.3c0,0.5,0.1,0.9,0.4,1.3c0.3,0.4,0.7,0.9,1.4,1.5c0.9,0.8,1.5,1.4,1.8,2
		c0.3,0.6,0.5,1.3,0.5,2.2c0,1.1-0.3,1.9-0.8,2.5c-0.5,0.6-1.3,0.9-2.3,0.9C86.5,146.6,85.8,146.3,85.3,145.7z"/>
</g>
<g>
	<path class="st0" d="M40.8,89.1c-0.5-0.6-0.8-1.4-0.8-2.4v-7.1c0-1,0.3-1.8,0.8-2.4c0.5-0.6,1.3-0.8,2.3-0.8s1.7,0.3,2.3,0.8
		c0.5,0.6,0.8,1.4,0.8,2.4V81h-2v-1.5c0-0.8-0.3-1.2-1-1.2c-0.7,0-1,0.4-1,1.2v7.3c0,0.8,0.3,1.2,1,1.2c0.7,0,1-0.4,1-1.2v-2h2v1.9
		c0,1-0.3,1.8-0.8,2.4c-0.5,0.6-1.3,0.8-2.3,0.8C42,89.9,41.3,89.6,40.8,89.1z"/>
	<path class="st0" d="M48,89.1c-0.5-0.6-0.8-1.4-0.8-2.4v-6.9c0-1.1,0.3-1.9,0.8-2.4c0.5-0.6,1.3-0.9,2.3-0.9c1,0,1.8,0.3,2.3,0.9
		c0.5,0.6,0.8,1.4,0.8,2.4v6.9c0,1.1-0.3,1.9-0.8,2.4s-1.3,0.9-2.3,0.9C49.3,89.9,48.5,89.6,48,89.1z M51.4,86.8v-7.2
		c0-0.9-0.4-1.3-1.1-1.3c-0.7,0-1.1,0.4-1.1,1.3v7.2c0,0.9,0.4,1.3,1.1,1.3C51,88,51.4,87.6,51.4,86.8z"/>
	<path class="st0" d="M54.8,76.6h2.9l1.3,9.4h0l1.3-9.4h2.9v13.1h-2v-9.9h0l-1.5,9.9h-1.7l-1.5-9.9h0v9.9h-1.8V76.6z"/>
	<path class="st0" d="M64.9,76.6h2.9l1.3,9.4h0l1.3-9.4h2.9v13.1h-2v-9.9h0L70,89.7h-1.7l-1.5-9.9h0v9.9h-1.8V76.6z"/>
	<path class="st0" d="M75.7,89.1c-0.5-0.6-0.8-1.4-0.8-2.5v-10H77v10.2c0,0.5,0.1,0.8,0.3,1C77.5,88,77.7,88,78,88
		c0.3,0,0.6-0.1,0.8-0.3c0.2-0.2,0.3-0.5,0.3-1V76.6h2v10c0,1.1-0.3,1.9-0.8,2.5c-0.5,0.6-1.3,0.8-2.3,0.8
		C77,89.9,76.3,89.6,75.7,89.1z"/>
	<path class="st0" d="M82.6,76.6h2.6l2,7.9h0v-7.9H89v13.1h-2.1l-2.5-9.6h0v9.6h-1.8V76.6z"/>
</g>
</svg>
