<?xml version="1.0" encoding="utf-8"?>
<!-- Generator: Adobe Illustrator 23.0.1, SVG Export Plug-In . SVG Version: 6.00 Build 0)  -->
<svg version="1.1" id="Calque_1" xmlns="http://www.w3.org/2000/svg" xmlns:xlink="http://www.w3.org/1999/xlink" x="0px" y="0px"
	 viewBox="0 0 345 194.1" style="enable-background:new 0 0 345 194.1;" xml:space="preserve">
<path d="M217.6,136c2,2,2,5.1,0,7.1c-1,1-2.3,1.5-3.5,1.5s-2.6-0.5-3.5-1.5L172,104.6l-38.5,38.5c-1,1-2.3,1.5-3.5,1.5
	s-2.6-0.5-3.5-1.5c-2-2-2-5.1,0-7.1l38.5-38.5l-38.5-38.5c-2-2-2-5.1,0-7.1c2-1.9,5.1-1.9,7.1,0L172,90.5L210.5,52
	c2-1.9,5.1-1.9,7.1,0c2,2,2,5.1,0,7.1l-38.5,38.5L217.6,136z"/>
</svg>
