<?xml version="1.0" encoding="utf-8"?>
<!-- Generator: Adobe Illustrator 23.0.1, SVG Export Plug-In . SVG Version: 6.00 Build 0)  -->
<svg version="1.1" id="Calque_1" xmlns="http://www.w3.org/2000/svg" xmlns:xlink="http://www.w3.org/1999/xlink" x="0px" y="0px"
	 viewBox="0 0 569.7 320.4" style="enable-background:new 0 0 569.7 320.4;" xml:space="preserve">
<style type="text/css">
	.st0{fill:#FFFFFF;}
</style>
<g>
	<g>
		<path class="st0" d="M213.4,219.7c-33.6,0-61-27.4-61-61v-57h265v57c0,33.6-27.4,61-61,61H213.4z"/>
		<path d="M416.8,102.2v56.5c0,33.4-27.1,60.5-60.5,60.5h-143c-33.4,0-60.5-27.1-60.5-60.5v-56.5H416.8 M417.8,101.2h-266v57.5
			c0,34,27.5,61.5,61.5,61.5h143c34,0,61.5-27.5,61.5-61.5V101.2L417.8,101.2z"/>
	</g>
	<g>
		<polygon points="284.5,141.2 306.1,141.2 295.3,160.2 284.5,179.2 273.7,160.2 262.8,141.2 		"/>
	</g>
</g>
</svg>
