<?xml version="1.0" encoding="utf-8"?>
<!-- Generator: Adobe Illustrator 23.0.1, SVG Export Plug-In . SVG Version: 6.00 Build 0)  -->
<svg version="1.1" id="Calque_1" xmlns="http://www.w3.org/2000/svg" xmlns:xlink="http://www.w3.org/1999/xlink" x="0px" y="0px"
	 viewBox="0 0 1920 1080" style="enable-background:new 0 0 1920 1080;" xml:space="preserve">
<style type="text/css">
	.st0{fill:#FFFFFF;}
</style>
<g>
	<g>
		<path class="st0" d="M866.5,565.5v-57c0-33.6,27.4-61,61-61h143c33.6,0,61,27.4,61,61v57H866.5z"/>
		<path d="M1070.5,448c33.4,0,60.5,27.1,60.5,60.5V565H867v-56.5c0-33.4,27.1-60.5,60.5-60.5H1070.5 M1070.5,447h-143
			c-34,0-61.5,27.5-61.5,61.5V566h266v-57.5C1132,474.5,1104.5,447,1070.5,447L1070.5,447z"/>
	</g>
	<g>
		<polygon points="999.3,526 977.7,526 988.5,507 999.3,488 1010.2,507 1021,526 		"/>
	</g>
</g>
</svg>
