<?xml version="1.0" encoding="utf-8"?>
<!-- Generator: Adobe Illustrator 23.0.1, SVG Export Plug-In . SVG Version: 6.00 Build 0)  -->
<svg version="1.1" id="Calque_1" xmlns="http://www.w3.org/2000/svg" xmlns:xlink="http://www.w3.org/1999/xlink" x="0px" y="0px"
	 viewBox="0 0 689 861.1" style="enable-background:new 0 0 689 861.1;" xml:space="preserve">
<style type="text/css">
	.st0{fill:#FFFFFF;}
</style>
<title>illustration3</title>
<g>
	<path class="st0" d="M1.1,100.9h45.7v290.8H1.1V100.9z"/>
	<path class="st0" d="M80.9,100.9h69.8c22.7,0,39.7,6.1,51.1,18.3c11.4,12.2,17,30.1,17,53.6v147.1c0,23.5-5.7,41.4-17,53.6
		c-11.4,12.2-28.4,18.3-51.1,18.3H80.9V100.9z M149.9,350.1c7.5,0,13.2-2.2,17.2-6.6c4-4.4,6-11.6,6-21.6V170.7c0-10-2-17.2-6-21.6
		c-4-4.4-9.8-6.6-17.2-6.6h-23.3v207.7H149.9z"/>
	<path class="st0" d="M249.6,100.9h124.6v41.5h-78.9v76.9H358v41.5h-62.7v89.3h78.9v41.5H249.6V100.9z M316,33.6h49.9l-44.5,47.8
		H287L316,33.6z"/>
	<path class="st0" d="M435.7,100.9h61.9l47.4,290.8h-45.7l-8.3-57.7v0.8H439l-8.3,56.9h-42.4L435.7,100.9z M485.5,295.3l-20.4-143.7
		h-0.8l-19.9,143.7H485.5z"/>
	<path class="st0" d="M567,100.9h45.7v249.3h75.2v41.5H567V100.9z"/>
</g>
<g>
	<path class="st0" d="M21.8,549.7h27.1l20.8,137.6h-20L46,660.1v0.4H23.2l-3.6,26.9H1L21.8,549.7z M11.8,517.9h21.8l12.7,22.6H31.2
		L11.8,517.9z M43.6,641.8l-8.9-68h-0.4l-8.7,68H43.6z"/>
	<path class="st0" d="M123.9,549.7H151l20.8,137.6h-20l-3.6-27.3v0.4h-22.8l-3.6,26.9h-18.6L123.9,549.7z M145.7,641.8l-8.9-68h-0.4
		l-8.7,68H145.7z"/>
	<path class="st0" d="M188.7,569.4h-20.9v-19.7h61.9v19.7h-20.9v118h-20V569.4z"/>
	<path class="st0" d="M256.8,569.4h-20.9v-19.7h61.9v19.7h-20.9v118h-20V569.4z"/>
	<path class="st0" d="M307.4,549.7H362v19.7h-34.6v36.4h27.5v19.7h-27.5v42.3H362v19.7h-54.6V549.7z"/>
	<path class="st0" d="M373.4,549.7h20v137.6h-20V549.7z"/>
	<path class="st0" d="M408.4,549.7h25.1l19.5,82.4h0.4v-82.4h17.8v137.6h-20.6l-24-100.5h-0.4v100.5h-17.8V549.7z"/>
	<path class="st0" d="M486.1,549.7h30.6c9.9,0,17.4,2.9,22.4,8.7c5,5.8,7.5,14.2,7.5,25.4v69.6c0,11.1-2.5,19.6-7.5,25.4
		c-5,5.8-12.4,8.7-22.4,8.7h-30.6V549.7z M516.3,667.7c3.3,0,5.8-1,7.6-3.1c1.8-2.1,2.6-5.5,2.6-10.2v-71.6c0-4.7-0.9-8.1-2.6-10.2
		c-1.8-2.1-4.3-3.1-7.6-3.1h-10.2v98.3H516.3z"/>
	<path class="st0" d="M560,549.7h29.7c10.3,0,17.8,2.6,22.6,7.8c4.7,5.2,7.1,13.1,7.1,23.9v8.5c0,14.3-4.4,23.3-13.1,27.1v0.4
		c4.9,1.6,8.3,4.8,10.3,9.6c2,4.9,3,11.3,3,19.5v24.2c0,3.9,0.1,7.1,0.4,9.5c0.2,2.4,0.8,4.8,1.8,7.2h-20.4
		c-0.7-2.2-1.2-4.3-1.5-6.3c-0.2-2-0.4-5.5-0.4-10.6v-25.2c0-6.3-0.9-10.7-2.8-13.2c-1.9-2.5-5.1-3.7-9.7-3.7H580v59h-20V549.7z
		 M587.3,608.7c4,0,7-1.1,9-3.3c2-2.2,3-6,3-11.2v-10.6c0-5-0.8-8.6-2.5-10.8c-1.6-2.2-4.2-3.3-7.7-3.3H580v39.3H587.3z"/>
	<path class="st0" d="M633.4,549.7H688v19.7h-34.6v36.4h27.5v19.7h-27.5v42.3H688v19.7h-54.6V549.7z"/>
</g>
<g>
	<path class="st0" d="M205.2,734.4h16.2c5.5,0,9.6,1.5,12.3,4.4c2.7,2.9,4.1,7.2,4.1,12.9v6.9c0,5.7-1.4,10-4.1,12.9
		c-2.7,2.9-6.8,4.4-12.3,4.4h-5.2v28.5h-11V734.4z M221.4,765.9c1.8,0,3.2-0.5,4.1-1.5s1.4-2.7,1.4-5.1V751c0-2.4-0.5-4.1-1.4-5.1
		s-2.2-1.5-4.1-1.5h-5.2v21.5H221.4z"/>
	<path class="st0" d="M248.8,734.4h14.9l11.4,70h-11l-2-13.9v0.2h-12.5l-2,13.7h-10.2L248.8,734.4z M260.8,781.2l-4.9-34.6h-0.2
		l-4.8,34.6H260.8z"/>
	<path class="st0" d="M280.4,734.4h16.3c5.7,0,9.8,1.3,12.4,4c2.6,2.6,3.9,6.7,3.9,12.2v4.3c0,7.3-2.4,11.9-7.2,13.8v0.2
		c2.7,0.8,4.5,2.4,5.6,4.9c1.1,2.5,1.6,5.8,1.6,9.9v12.3c0,2,0.1,3.6,0.2,4.9c0.1,1.2,0.5,2.4,1,3.6h-11.2c-0.4-1.1-0.7-2.2-0.8-3.2
		c-0.1-1-0.2-2.8-0.2-5.4V783c0-3.2-0.5-5.4-1.5-6.7c-1-1.3-2.8-1.9-5.4-1.9h-3.8v30h-11V734.4z M295.4,764.4c2.2,0,3.9-0.6,4.9-1.7
		c1.1-1.1,1.7-3,1.7-5.7v-5.4c0-2.5-0.5-4.4-1.4-5.5c-0.9-1.1-2.3-1.7-4.2-1.7h-5v20H295.4z"/>
	<path class="st0" d="M345.3,744.4h-11.5v-10h34v10h-11.5v60h-11V744.4z"/>
	<path class="st0" d="M376.2,800.8c-2.9-3.1-4.3-7.4-4.3-13V751c0-5.6,1.4-9.9,4.3-13c2.9-3.1,7-4.6,12.4-4.6s9.5,1.5,12.4,4.6
		c2.9,3.1,4.3,7.4,4.3,13v36.8c0,5.6-1.4,9.9-4.3,13c-2.9,3.1-7,4.6-12.4,4.6S379.1,803.9,376.2,800.8z M394.3,788.5v-38.2
		c0-4.6-1.9-6.9-5.7-6.9s-5.7,2.3-5.7,6.9v38.2c0,4.6,1.9,6.9,5.7,6.9S394.3,793.1,394.3,788.5z"/>
	<path class="st0" d="M416.5,800.8c-2.8-3-4.2-7.4-4.2-13v-53.4h11v54.2c0,2.4,0.5,4.1,1.4,5.2c1,1.1,2.4,1.6,4.1,1.6
		c1.8,0,3.2-0.5,4.2-1.6c1-1.1,1.4-2.8,1.4-5.2v-54.2h10.6v53.4c0,5.7-1.4,10-4.2,13c-2.8,3-6.9,4.5-12.2,4.5
		C423.4,805.4,419.3,803.9,416.5,800.8z"/>
	<path class="st0" d="M455.1,800.8c-2.7-3-4.1-7.4-4.1-13v-4h10.4v4.8c0,4.5,1.9,6.8,5.7,6.8c1.9,0,3.3-0.5,4.2-1.6
		c1-1.1,1.5-2.9,1.5-5.4c0-2.9-0.7-5.5-2-7.8c-1.3-2.2-3.8-4.9-7.4-8c-4.5-4-7.7-7.6-9.5-10.8c-1.8-3.2-2.7-6.9-2.7-11
		c0-5.5,1.4-9.8,4.2-12.9c2.8-3,6.9-4.5,12.2-4.5c5.3,0,9.2,1.5,12,4.5c2.7,3,4,7.4,4,13.1v2.9h-10.4v-3.6c0-2.4-0.5-4.2-1.4-5.2
		c-0.9-1.1-2.3-1.7-4.1-1.7c-3.7,0-5.5,2.2-5.5,6.7c0,2.5,0.7,4.9,2.1,7.1c1.4,2.2,3.8,4.9,7.4,8c4.6,4,7.8,7.6,9.5,10.9
		c1.7,3.3,2.6,7.1,2.6,11.5c0,5.7-1.4,10.1-4.2,13.2c-2.8,3.1-7,4.6-12.4,4.6C461.9,805.4,457.8,803.9,455.1,800.8z"/>
</g>
<g>
	<path class="st0" d="M217.9,499.1c-2.8-3-4.1-7.2-4.1-12.7v-37.6c0-5.5,1.4-9.7,4.1-12.7c2.8-3,6.8-4.5,12.1-4.5
		c5.3,0,9.3,1.5,12,4.5c2.8,3,4.1,7.2,4.1,12.7v7.4h-10.4v-8.1c0-4.3-1.8-6.5-5.5-6.5c-3.7,0-5.5,2.2-5.5,6.5v39.1
		c0,4.3,1.8,6.4,5.5,6.4c3.7,0,5.5-2.1,5.5-6.4v-10.7h10.4v9.9c0,5.5-1.4,9.7-4.1,12.7c-2.8,3-6.8,4.5-12,4.5
		C224.7,503.6,220.7,502.1,217.9,499.1z"/>
	<path class="st0" d="M256.5,499c-2.9-3.1-4.3-7.4-4.3-13v-36.8c0-5.6,1.4-9.9,4.3-13c2.9-3.1,7-4.6,12.4-4.6s9.5,1.5,12.4,4.6
		c2.9,3.1,4.3,7.4,4.3,13V486c0,5.6-1.4,9.9-4.3,13c-2.9,3.1-7,4.6-12.4,4.6S259.3,502.1,256.5,499z M274.6,486.7v-38.2
		c0-4.6-1.9-6.9-5.7-6.9s-5.7,2.3-5.7,6.9v38.2c0,4.6,1.9,6.9,5.7,6.9S274.6,491.3,274.6,486.7z"/>
	<path class="st0" d="M293,432.6h15.7l7,50.1h0.2l7-50.1h15.7v70h-10.4v-53H328l-8,53h-9.2l-8-53h-0.2v53H293V432.6z"/>
	<path class="st0" d="M346.8,432.6h15.7l7,50.1h0.2l7-50.1h15.7v70h-10.4v-53h-0.2l-8,53h-9.2l-8-53h-0.2v53h-9.6V432.6z"/>
	<path class="st0" d="M404.3,499.1c-2.8-3-4.2-7.4-4.2-13.1v-53.4h11v54.2c0,2.4,0.5,4.1,1.4,5.2c1,1.1,2.4,1.6,4.1,1.6
		c1.8,0,3.2-0.5,4.2-1.6c1-1.1,1.4-2.8,1.4-5.2v-54.2h10.6V486c0,5.7-1.4,10-4.2,13.1c-2.8,3-6.9,4.5-12.2,4.5
		C411.2,503.6,407.1,502.1,404.3,499.1z"/>
	<path class="st0" d="M440.7,432.6h13.8l10.7,41.9h0.2v-41.9h9.8v70h-11.3l-13.2-51.1h-0.2v51.1h-9.8V432.6z"/>
</g>
</svg>
