<svg id="Calque_1" data-name="Calque 1" xmlns="http://www.w3.org/2000/svg" viewBox="0 0 797.94 861.16"><defs><style>.cls-1{fill:#fff;}</style></defs><title>illustration2</title><path class="cls-1" d="M219.7,85.11H401.27v53.4H339.85V458.93H281.11V138.51H219.7Z" transform="translate(-219.7 -80.84)"/><path class="cls-1" d="M422.09,174.83c0-59.81,31.51-94,89.18-94s89.18,34.18,89.18,94V369.21c0,59.81-31.51,94-89.18,94s-89.18-34.18-89.18-94ZM480.83,373c0,26.7,11.75,36.85,30.44,36.85s30.44-10.15,30.44-36.85V171.09c0-26.7-11.75-36.85-30.44-36.85s-30.44,10.15-30.44,36.85Z" transform="translate(-219.7 -80.84)"/><path class="cls-1" d="M694.44,85.11V373.49c0,26.7,11.75,36.31,30.44,36.31s30.44-9.61,30.44-36.31V85.11h55.54V369.75c0,59.81-29.91,94-87.58,94s-87.58-34.18-87.58-94V85.11Z" transform="translate(-219.7 -80.84)"/><path class="cls-1" d="M930,80.84c57.14,0,86.51,34.18,86.51,94v11.75H960.93V171.09c0-26.7-10.68-36.85-29.37-36.85s-29.37,10.15-29.37,36.85c0,27.24,11.75,47.53,50.2,81.17,49.13,43.26,64.62,74.23,64.62,117,0,59.81-29.91,94-87.58,94s-87.58-34.18-87.58-94v-23h55.54V373c0,26.7,11.75,36.31,30.44,36.31s30.44-9.61,30.44-36.31c0-27.24-11.75-47.53-50.2-81.17-49.13-43.26-64.62-74.23-64.62-117C843.44,115,872.81,80.84,930,80.84Z" transform="translate(-219.7 -80.84)"/><path class="cls-1" d="M220.38,506.53h28.82V663.71h47.41v26.2H220.38Z" transform="translate(-219.7 -80.84)"/><path class="cls-1" d="M338,583.81h39.56V610H338v53.7h49.77v26.2H309.18V506.53h78.59v26.2H338Z" transform="translate(-219.7 -80.84)"/><path class="cls-1" d="M444.35,504.44c28,0,42.44,16.77,42.44,46.1v5.76H459.55v-7.6c0-13.1-5.24-18.08-14.41-18.08s-14.41,5-14.41,18.08c0,13.36,5.76,23.31,24.62,39.82,24.1,21.22,31.7,36.41,31.7,57.37,0,29.34-14.67,46.11-43,46.11s-43-16.77-43-46.11V634.63h27.24v13.1c0,13.1,5.76,17.81,14.93,17.81s14.93-4.72,14.93-17.81c0-13.36-5.76-23.31-24.62-39.82-24.1-21.22-31.7-36.41-31.7-57.37C401.91,521.2,416.32,504.44,444.35,504.44Z" transform="translate(-219.7 -80.84)"/><path class="cls-1" d="M573,583.81h39.56V610H573v53.7h49.77v26.2H544.16V506.53h78.59v26.2H573Zm-26.2-87,23.31-29.08H596l23.31,29.08H594.72l-11.79-14.41L571.4,496.84Z" transform="translate(-219.7 -80.84)"/><path class="cls-1" d="M632.18,506.53h89.07v26.2H691.12V689.9H662.31V532.73H632.18Z" transform="translate(-219.7 -80.84)"/><path class="cls-1" d="M794.07,689.9c-1.57-4.72-2.62-7.6-2.62-22.53V638.56c0-17-5.76-23.31-18.86-23.31h-10V689.9H733.82V506.53H777.3c29.86,0,42.7,13.88,42.7,42.18v14.41c0,18.86-6,30.91-18.86,36.94v.52c14.41,6,19.12,19.65,19.12,38.77v28.29c0,8.91.26,15.45,3.14,22.27ZM762.64,532.73V589H773.9c10.74,0,17.29-4.71,17.29-19.39V551.59c0-13.1-4.45-18.86-14.67-18.86Z" transform="translate(-219.7 -80.84)"/><path class="cls-1" d="M867.94,583.81H907.5V610H867.94v53.7h49.77v26.2H839.13V506.53h78.59v26.2H867.94Z" transform="translate(-219.7 -80.84)"/><path class="cls-1" d="M974.3,504.44c28,0,42.44,16.77,42.44,46.1v5.76H989.49v-7.6c0-13.1-5.24-18.08-14.41-18.08s-14.41,5-14.41,18.08c0,13.36,5.76,23.31,24.62,39.82,24.1,21.22,31.7,36.41,31.7,57.37,0,29.34-14.67,46.11-43,46.11s-43-16.77-43-46.11V634.63h27.24v13.1c0,13.1,5.76,17.81,14.93,17.81s14.93-4.72,14.93-17.81c0-13.36-5.76-23.31-24.62-39.82-24.1-21.22-31.7-36.41-31.7-57.37C931.86,521.2,946.27,504.44,974.3,504.44Z" transform="translate(-219.7 -80.84)"/><path class="cls-1" d="M253.73,939.35H221.29V733h32.43v88.45h36.86V733h33V939.35h-33V850.89H253.73Z" transform="translate(-219.7 -80.84)"/><path class="cls-1" d="M378.14,733V892.17c0,14.74,6.49,20,16.81,20s16.81-5.31,16.81-20V733h30.66V890.11c0,33-16.51,51.89-48.35,51.89s-48.35-18.87-48.35-51.89V733Z" transform="translate(-219.7 -80.84)"/><path class="cls-1" d="M532.93,879.49h.59L555.34,733h45.11V939.35H569.79v-148h-.59l-21.82,148H516.72L493.13,793.4h-.59V939.35H464.23V733h45.11Z" transform="translate(-219.7 -80.84)"/><path class="cls-1" d="M729,939.35H696.27l-5.6-37.45h-39.8l-5.6,37.45H615.48L648.5,733H696Zm-74-65.46h31.25L670.91,769.52h-.59Z" transform="translate(-219.7 -80.84)"/><path class="cls-1" d="M744,733h32.43V939.35H744Z" transform="translate(-219.7 -80.84)"/><path class="cls-1" d="M829.53,789.86h-.59V939.35H799.75V733h40.69L873.17,856.5h.59V733h28.89V939.35H869.33Z" transform="translate(-219.7 -80.84)"/><path class="cls-1" d="M969.57,730.6c31.55,0,47.76,18.87,47.76,51.89V789H986.67v-8.55c0-14.74-5.9-20.34-16.22-20.34s-16.22,5.6-16.22,20.34c0,15,6.49,26.24,27.71,44.82,27.13,23.88,35.68,41,35.68,64.57,0,33-16.51,51.89-48.35,51.89s-48.35-18.87-48.35-51.89V877.13h30.66v14.74c0,14.74,6.49,20,16.81,20s16.81-5.31,16.81-20c0-15-6.49-26.24-27.71-44.82-27.13-23.88-35.68-41-35.68-64.57C921.81,749.47,938,730.6,969.57,730.6Z" transform="translate(-219.7 -80.84)"/></svg>