<?xml version="1.0" encoding="utf-8"?>
<!-- Generator: Adobe Illustrator 23.0.1, SVG Export Plug-In . SVG Version: 6.00 Build 0)  -->
<svg version="1.1" xmlns="http://www.w3.org/2000/svg" xmlns:xlink="http://www.w3.org/1999/xlink" x="0px" y="0px"
	 viewBox="0 0 798 847" style="enable-background:new 0 0 798 847;" xml:space="preserve">
<style type="text/css">
	.st0{display:none;}
	.st1{display:inline;}
</style>
<g id="Calque_1" class="st0">
	<path class="st1" d="M117.8,254.4H84.5l-5.7-38.1H38.3l-5.7,38.1H2.3l33.6-210h48.3L117.8,254.4z M42.5,187.8h31.8L58.7,81.6h-0.6
		L42.5,187.8z"/>
	<path class="st1" d="M133.1,44.4h52.2c33,0,49.2,18.3,49.2,51.9v106.2c0,33.6-16.2,51.9-49.2,51.9h-52.2V44.4z M166.1,74.4v150
		h18.6c10.5,0,16.8-5.4,16.8-20.4V94.8c0-15-6.3-20.4-16.8-20.4L166.1,74.4z"/>
	<path class="st1" d="M252.8,94.8c0-33.6,17.7-52.8,50.1-52.8S353,61.2,353,94.8V204c0,33.6-17.7,52.8-50.1,52.8
		s-50.1-19.2-50.1-52.8L252.8,94.8z M285.8,206.1c0,15,6.6,20.7,17.1,20.7s17.1-5.7,17.1-20.7V92.7c0-15-6.6-20.7-17.1-20.7
		s-17.1,5.7-17.1,20.7V206.1z"/>
	<path class="st1" d="M472.1,96.3v27.3c0,33.6-16.2,51.9-49.2,51.9h-15.6v78.9h-33v-210h48.6C455.9,44.4,472.1,62.7,472.1,96.3z
		 M407.3,74.4v71.1h15.6c10.5,0,16.2-4.8,16.2-19.8V94.2c0-15-5.7-19.8-16.2-19.8L407.3,74.4z"/>
	<path class="st1" d="M477.8,44.4h102v30h-34.5v180h-33v-180h-34.5V44.4z"/>
	<path class="st1" d="M627.2,132.9h45.3v30h-45.3v61.5h57v30h-90v-210h90v30h-57V132.9z M674.3,0l-30.6,33.3h-22.2L641.9,0H674.3z"
		/>
	<path class="st1" d="M737.6,132.9h45.3v30h-45.3v61.5h57v30h-90v-210h90v30h-57L737.6,132.9z"/>
	<path class="st1" d="M3.3,301.1h17.5v95.6h28.8v15.9H3.3V301.1z"/>
	<path class="st1" d="M74.8,348.1h24.1V364H74.8v32.7h30.3v15.9H57.3V301.1h47.8V317H74.8V348.1z"/>
	<path class="st1" d="M151.5,315.1c13.5,0,16.6-6.5,19.3-14h11.8v111.5H165v-85.1h-13.5V315.1z"/>
	<path class="st1" d="M202.3,327.8c0-17.9,9.4-28,26.6-28s26.6,10.2,26.6,28v58c0,17.8-9.4,28-26.6,28s-26.6-10.2-26.6-28
		L202.3,327.8z M219.8,386.9c0,8,3.5,11,9.1,11s9.1-3,9.1-11v-60.2c0-8-3.5-11-9.1-11s-9.1,3-9.1,11V386.9z"/>
	<path class="st1" d="M291.5,301.1h27.7c17.5,0,26.1,9.7,26.1,27.6V385c0,17.9-8.6,27.6-26.1,27.6h-27.7V301.1z M309,317v79.7h9.9
		c5.6,0,8.9-2.9,8.9-10.8v-58c0-8-3.3-10.8-8.9-10.8L309,317z"/>
	<path class="st1" d="M374,348.1h24.1V364H374v32.7h30.3v15.9h-47.8V301.1h47.8V317H374V348.1z M399,277.5l-16.2,17.7H371l10.8-17.6
		L399,277.5z"/>
	<path class="st1" d="M466,371v14.8c0,17.8-8.9,28-26.1,28s-26.1-10.2-26.1-28v-58c0-17.9,8.9-28,26.1-28s26.1,10.2,26.1,28v10.8
		h-16.6v-12c0-8-3.5-11-9.1-11s-9.1,3-9.1,11v60.2c0,8,3.5,10.8,9.1,10.8s9.1-2.9,9.1-10.8V371H466z"/>
	<path class="st1" d="M494.2,348.1h24.1V364h-24.1v32.7h30.3v15.9h-47.8V301.1h47.8V317h-30.3V348.1z"/>
	<path class="st1" d="M572.2,380.3h0.3l11.8-79.2h24.4v111.5h-16.6v-80h-0.3l-11.8,80h-16.6l-12.8-78.9h-0.3v78.9h-15.3V301.1h24.4
		L572.2,380.3z"/>
	<path class="st1" d="M673.9,326.7v4c0,11.5-3.5,18.6-11.3,22.3v0.3c9.4,3.7,13.1,12,13.1,23.7v9.1c0,17.2-9.1,26.5-26.6,26.5h-27.6
		V301.1h26.5C666.1,301.1,673.9,309.5,673.9,326.7z M639,317v29.5h6.8c6.5,0,10.5-2.9,10.5-11.8v-6.2c0-8-2.7-11.5-8.9-11.5L639,317
		z M639,362.4v34.3h10c5.9,0,9.1-2.7,9.1-11V376c0-10.4-3.3-13.5-11.3-13.5H639z"/>
	<path class="st1" d="M722.8,412.6c-1-2.9-1.6-4.6-1.6-13.7v-17.5c0-10.4-3.5-14.2-11.5-14.2h-6v45.4h-17.5V301.1h26.4
		c18.2,0,26,8.4,26,25.6v8.8c0,11.5-3.7,18.8-11.5,22.5v0.3c8.8,3.7,11.6,12,11.6,23.6v17.2c0,5.4,0.2,9.4,1.9,13.5L722.8,412.6z
		 M703.7,317v34.3h6.8c6.5,0,10.5-2.9,10.5-11.8v-11c0-8-2.7-11.5-8.9-11.5H703.7z"/>
	<path class="st1" d="M767.7,348.1h24.1V364h-24.1v32.7H798v15.9h-47.8V301.1H798V317h-30.3V348.1z"/>
	<path class="st1" d="M0,507.5c46.5,0,57-22.5,66.3-48.2h40.5v383.3H46.5V550.2H0V507.5z"/>
	<path class="st1" d="M356.5,747.3c0,64.6-29.6,99.7-92,99.7c-59.1,0-89.8-35-89.8-96.4v-9.9h57v13.7c0,27.4,12,37.8,31.2,37.8
		c21.4,0,33.4-10.4,33.4-47.1v-69.5h-1.1c-10.4,21.9-27.9,33.4-54.8,33.4c-44.4,0-66.8-31.2-66.8-87.6v-70.1
		c0-61.3,32.3-96.4,91.5-96.4s91.5,35,91.5,96.4L356.5,747.3z M296.2,616.5v-68.9c0-27.4-12-37.2-31.2-37.2s-31.2,9.9-31.2,37.2v69
		c0,27.4,12,37.8,31.2,37.8S296.2,643.9,296.2,616.5z"/>
	<path class="st1" d="M382.2,718.3l109.5-259h65.7v259h28.5v54.8h-28.5v69.5h-60.2v-69.5h-115V718.3z M497.2,718.3V576.5h-1.1
		l-58.6,141.8H497.2z"/>
	<path class="st1" d="M699.8,847c-60.8,0-94.2-35-94.2-96.4v-30.1c0-36.7,11-64.6,37.2-79.4V640c-25.2-13.7-37.2-38.9-37.2-76.7v-12
		c0-61.3,33.4-96.4,94.2-96.4s94.2,35,94.2,96.4v12c0,37.8-12.6,63-37.2,76.7v1.1c26.2,14.8,37.2,42.7,37.2,79.4v30.1
		C794,812,760.6,847,699.8,847z M665.8,574.9c0,30.7,14.2,40.5,34,40.5c19.2,0,34-9.9,34-40.5v-21.3c0-34.5-14.8-43.8-34-43.8
		s-34,9.3-34,43.8V574.9z M699.8,792.3c19.2,0,33.4-9.3,34-43.3v-35.6c0-30.1-12.6-43.3-34-43.3s-34,13.1-34,43.3V749
		C665.9,782.9,680.7,792.3,699.8,792.3L699.8,792.3z"/>
</g>
<g id="Calque_2">
	<g>
		<path d="M129.8,84.5H82V43h141.2v41.5h-47.8v249.2h-45.7V84.5z"/>
		<path d="M240.3,264.8V111.9c0-46.5,24.5-73.1,69.4-73.1c44.9,0,69.4,26.6,69.4,73.1v152.8c0,46.5-24.5,73.1-69.4,73.1
			C264.8,337.9,240.3,311.3,240.3,264.8z M333.3,267.7V109c0-20.8-9.1-28.7-23.7-28.7c-14.5,0-23.7,7.9-23.7,28.7v158.6
			c0,20.8,9.1,28.7,23.7,28.7C324.1,296.3,333.3,288.4,333.3,267.7z"/>
		<path d="M408,264.8V43h45.7v225.1c0,20.8,8.7,28.2,23.3,28.2c14.5,0,23.3-7.5,23.3-28.2V43h44v221.8c0,46.5-23.3,73.1-68.1,73.1
			S408,311.3,408,264.8z"/>
		<path d="M568.8,264.8v-16.6h43.2v19.9c0,20.8,9.1,28.2,23.7,28.2c14.5,0,23.7-7.5,23.7-29.1c0-24.1-9.1-39.5-39-65.6
			c-38.2-33.6-50.7-57.3-50.7-90.5c0-45.7,23.7-72.3,68.1-72.3c44.4,0,66.4,26.6,66.4,73.1v12H661v-15c0-20.8-8.3-28.7-22.8-28.7
			s-22.8,7.9-22.8,27.8c0,21.2,9.6,36.5,39.5,62.7c38.2,33.6,50.3,56.9,50.3,93c0,47.3-24.1,73.9-68.9,73.9S568.8,311.3,568.8,264.8
			z"/>
	</g>
	<g>
		<path d="M316.7,405.2v-4.2h10.8v5c0,5.2,2.3,7.1,5.9,7.1c3.6,0,5.9-1.9,5.9-7.3c0-6-2.3-9.9-9.8-16.4
			c-9.6-8.4-12.7-14.3-12.7-22.6c0-11.4,5.9-18.1,17-18.1c11.1,0,16.6,6.6,16.6,18.3v3h-10.8v-3.7c0-5.2-2.1-7.2-5.7-7.2
			c-3.6,0-5.7,2-5.7,7c0,5.3,2.4,9.1,9.9,15.7c9.6,8.4,12.6,14.2,12.6,23.3c0,11.8-6,18.5-17.2,18.5
			C322.3,423.5,316.7,416.8,316.7,405.2z"/>
		<path d="M356.5,405.2V367c0-11.6,6.1-18.3,17.3-18.3c11.2,0,17.3,6.6,17.3,18.3v38.2c0,11.6-6.1,18.3-17.3,18.3
			C362.6,423.5,356.5,416.8,356.5,405.2z M379.7,405.9v-39.7c0-5.2-2.3-7.2-5.9-7.2c-3.6,0-5.9,2-5.9,7.2v39.7
			c0,5.2,2.3,7.2,5.9,7.2C377.5,413.1,379.7,411.1,379.7,405.9z"/>
		<path d="M398.8,349.8h14.3l11.1,43.5h0.2v-43.5h10.2v72.7h-11.7l-13.7-53.1H409v53.1h-10.2V349.8z"/>
		<path d="M452.1,360.1h-11.9v-10.4h35.3v10.4h-11.9v62.3h-11.4V360.1z"/>
	</g>
	<g>
		<path d="M5.6,498.2h124.6v41.5H51.3v76.8H114v41.5H51.3v89.3h78.9v41.5H5.6V498.2z M72.1,430.9h49.8l-44.4,47.8H43L72.1,430.9z"/>
		<path d="M153,720V567.1c0-46.5,23.3-73.1,68.1-73.1s68.1,26.6,68.1,73.1V592h-43.2v-27.8c0-20.8-9.1-28.7-23.7-28.7
			c-14.5,0-23.7,7.9-23.7,28.7v159.1c0,20.8,9.1,28.2,23.7,28.2c14.5,0,23.7-7.5,23.7-28.2v-56.9h-22.8v-41.5h66V720
			c0,46.5-23.3,73.1-68.1,73.1S153,766.5,153,720z"/>
		<path d="M354,498.2h61.9l47.3,290.7h-45.7l-8.3-57.7v0.8h-51.9l-8.3,56.9h-42.4L354,498.2z M403.9,692.5l-20.3-143.7h-0.8
			l-19.9,143.7H403.9z"/>
		<path d="M482.8,720V498.2h45.7v225.1c0,20.8,8.7,28.2,23.3,28.2c14.5,0,23.3-7.5,23.3-28.2V498.2h44V720
			c0,46.5-23.3,73.1-68.1,73.1S482.8,766.5,482.8,720z"/>
		<path d="M691.3,640.2l-50.3-142h48.2l30.7,93.9h0.8l31.6-93.9h43.2l-50.3,142L798,788.9h-48.2l-33.2-101.3h-0.8l-34.1,101.3h-43.2
			L691.3,640.2z"/>
	</g>
</g>
</svg>
