<svg class="illustration1" viewBox="0 0 798 847.01">
  <path class="cls-1" d="M358.8,348.87H325.5l-5.7-38.1H279.3l-5.7,38.1H243.3l33.6-210h48.3Zm-75.3-66.6h31.8l-15.6-106.2h-.6Z" transform="translate(-241 -94.47)"/><path class="cls-1" d="M374.1,138.87h52.2c33,0,49.2,18.3,49.2,51.9V297c0,33.6-16.2,51.9-49.2,51.9H374.1Zm33,30v150h18.6c10.5,0,16.8-5.4,16.8-20.4V189.27c0-15-6.3-20.4-16.8-20.4Z" transform="translate(-241 -94.47)"/><path class="cls-1" d="M493.8,189.27c0-33.6,17.7-52.8,50.1-52.8s50.1,19.2,50.1,52.8v109.2c0,33.6-17.7,52.8-50.1,52.8s-50.1-19.2-50.1-52.8Zm33,111.3c0,15,6.6,20.7,17.1,20.7s17.1-5.7,17.1-20.7V187.17c0-15-6.6-20.7-17.1-20.7s-17.1,5.7-17.1,20.7Z" transform="translate(-241 -94.47)"/><path class="cls-1" d="M713.1,190.77v27.3c0,33.6-16.2,51.9-49.2,51.9h-15.6v78.9h-33v-210h48.6C696.9,138.87,713.1,157.17,713.1,190.77Zm-64.8-21.9V240h15.6c10.5,0,16.2-4.8,16.2-19.8v-31.5c0-15-5.7-19.8-16.2-19.8Z" transform="translate(-241 -94.47)"/><path class="cls-1" d="M718.79,138.87h102v30h-34.5v180h-33v-180h-34.5Z" transform="translate(-241 -94.47)"/><path class="cls-1" d="M868.19,227.37h45.3v30h-45.3v61.5h57v30h-90v-210h90v30h-57Zm47.1-132.9-30.6,33.3h-22.2l20.4-33.3Z" transform="translate(-241 -94.47)"/><path class="cls-1" d="M978.59,227.37h45.3v30h-45.3v61.5h57v30h-90v-210h90v30h-57Z" transform="translate(-241 -94.47)"/><path class="cls-1" d="M244.29,395.54h17.53v95.6h28.84v15.93H244.29Z" transform="translate(-241 -94.47)"/><path class="cls-1" d="M315.83,442.55h24.06v15.93H315.83v32.66H346.1v15.93H298.3V395.54h47.8v15.93H315.83Z" transform="translate(-241 -94.47)"/><path class="cls-1" d="M392.46,409.56c13.54,0,16.57-6.53,19.28-14h11.79V507.08H406V422H392.46Z" transform="translate(-241 -94.47)"/><path class="cls-1" d="M443.29,422.31c0-17.85,9.4-28,26.61-28s26.61,10.2,26.61,28v58c0,17.84-9.4,28-26.61,28s-26.61-10.2-26.61-28Zm17.53,59.11c0,8,3.51,11,9.08,11s9.08-3,9.08-11V421.2c0-8-3.5-11-9.08-11s-9.08,3-9.08,11Z" transform="translate(-241 -94.47)"/><path class="cls-1" d="M532.51,395.54h27.72c17.53,0,26.13,9.72,26.13,27.56v56.4c0,17.85-8.6,27.56-26.13,27.56H532.51ZM550,411.48v79.67h9.88c5.58,0,8.92-2.87,8.92-10.83v-58c0-8-3.35-10.83-8.92-10.83Z" transform="translate(-241 -94.47)"/><path class="cls-1" d="M615,442.55H639.1v15.93H615v32.66h30.27v15.93h-47.8V395.54h47.8v15.93H615Zm25-70.58L623.8,389.65H612L622.85,372Z" transform="translate(-241 -94.47)"/><path class="cls-1" d="M707,465.49v14.82c0,17.84-8.92,28-26.13,28s-26.13-10.2-26.13-28v-58c0-17.85,8.92-28,26.13-28s26.13,10.2,26.13,28v10.83H690.4v-12c0-8-3.5-11-9.08-11s-9.08,3-9.08,11v60.23c0,8,3.51,10.83,9.08,10.83s9.08-2.87,9.08-10.83V465.49Z" transform="translate(-241 -94.47)"/><path class="cls-1" d="M735.17,442.55h24.06v15.93H735.17v32.66h30.27v15.93h-47.8V395.54h47.8v15.93H735.17Z" transform="translate(-241 -94.47)"/><path class="cls-1" d="M813.24,474.73h.32l11.79-79.19h24.38V507.08H833.16v-80h-.32l-11.79,80H804.48l-12.75-78.87h-.32v78.87h-15.3V395.54h24.38Z" transform="translate(-241 -94.47)"/><path class="cls-1" d="M914.89,421.2v4c0,11.47-3.5,18.64-11.31,22.31v.32c9.4,3.66,13.07,12,13.07,23.74v9.08c0,17.21-9.08,26.45-26.61,26.45H862.47V395.54h26.45C907.08,395.54,914.89,404,914.89,421.2ZM880,411.48V441h6.85c6.53,0,10.52-2.87,10.52-11.79v-6.21c0-8-2.71-11.47-8.92-11.47Zm0,45.41v34.26h10c5.9,0,9.08-2.71,9.08-11v-9.72c0-10.36-3.35-13.54-11.31-13.54Z" transform="translate(-241 -94.47)"/><path class="cls-1" d="M963.8,507.08c-1-2.87-1.59-4.62-1.59-13.7V475.85c0-10.36-3.5-14.18-11.47-14.18h-6.05v45.41H927.15V395.54H953.6c18.16,0,26,8.44,26,25.65V430c0,11.47-3.66,18.8-11.47,22.47v.32c8.76,3.66,11.63,11.95,11.63,23.58v17.21c0,5.42.16,9.4,1.91,13.54Zm-19.12-95.6v34.26h6.85c6.53,0,10.52-2.87,10.52-11.79v-11c0-8-2.71-11.47-8.92-11.47Z" transform="translate(-241 -94.47)"/><path class="cls-1" d="M1008.73,442.55h24.06v15.93h-24.06v32.66H1039v15.93H991.2V395.54H1039v15.93h-30.27Z" transform="translate(-241 -94.47)"/><path class="cls-1" d="M241,602c46.55,0,56.95-22.45,66.26-48.19h40.52V937.1H287.55V644.69H241Z" transform="translate(-241 -94.47)"/><path class="cls-1" d="M597.48,841.82c0,64.61-29.57,99.66-92,99.66-59.14,0-89.8-35-89.8-96.37v-9.86h56.95v13.69c0,27.38,12,37.78,31.21,37.78,21.36,0,33.4-10.4,33.4-47.09V770.09h-1.1c-10.4,21.9-27.93,33.4-54.76,33.4-44.36,0-66.81-31.21-66.81-87.61V645.79c0-61.33,32.31-96.38,91.45-96.38s91.45,35,91.45,96.38ZM537.24,710.95V642c0-27.38-12-37.24-31.21-37.24s-31.21,9.86-31.21,37.24v69c0,27.38,12,37.78,31.21,37.78S537.24,738.33,537.24,710.95Z" transform="translate(-241 -94.47)"/><path class="cls-1" d="M623.21,812.8l109.52-259h65.71v259h28.47v54.76H798.44V937.1H738.21V867.56h-115Zm115,0V671h-1.1L678.52,812.8Z" transform="translate(-241 -94.47)"/><path class="cls-1" d="M940.82,941.48c-60.78,0-94.19-35-94.19-96.37V815c0-36.69,11-64.61,37.24-79.4v-1.1c-25.19-13.69-37.24-38.88-37.24-76.66v-12c0-61.33,33.4-96.38,94.19-96.38s94.18,35,94.18,96.38v12c0,37.78-12.59,63-37.24,76.66v1.1C1024,750.38,1035,778.3,1035,815v30.12C1035,906.44,1001.6,941.48,940.82,941.48Zm-34-272.15c0,30.67,14.24,40.52,34,40.52,19.17,0,34-9.86,34-40.52V648c0-34.5-14.79-43.81-34-43.81s-34,9.31-34,43.81Zm34,217.39c19.17,0,33.4-9.31,34-43.26V807.87c0-30.12-12.59-43.26-34-43.26s-34,13.14-34,43.26v35.59C906.86,877.42,921.65,886.73,940.82,886.73Z" transform="translate(-241 -94.47)"/>
</svg>
