<?xml version="1.0" encoding="utf-8"?>
<!-- Generator: Adobe Illustrator 23.0.1, SVG Export Plug-In . SVG Version: 6.00 Build 0)  -->
<svg version="1.1" id="Calque_1" xmlns="http://www.w3.org/2000/svg" xmlns:xlink="http://www.w3.org/1999/xlink" x="0px" y="0px"
	 viewBox="0 0 129.5 148.3" style="enable-background:new 0 0 129.5 148.3;" xml:space="preserve">
<style type="text/css">
	.st0{fill:#FFFFFF;}
</style>
<title>illustration3</title>
<g>
	<path class="st0" d="M42.4,53.8h3v19h-3V53.8z"/>
	<path class="st0" d="M47.6,53.8h4.6c1.5,0,2.6,0.4,3.3,1.2c0.7,0.8,1.1,2,1.1,3.5v9.6c0,1.5-0.4,2.7-1.1,3.5
		c-0.7,0.8-1.9,1.2-3.3,1.2h-4.6V53.8z M52.1,70.1c0.5,0,0.9-0.1,1.1-0.4s0.4-0.8,0.4-1.4v-9.9c0-0.7-0.1-1.1-0.4-1.4
		s-0.6-0.4-1.1-0.4h-1.5v13.6L52.1,70.1L52.1,70.1z"/>
	<path class="st0" d="M58.6,53.8h8.1v2.7h-5.1v5h4.1v2.7h-4.1v5.8h5.1v2.7h-8.1V53.8z M62.9,49.4h3.3l-2.9,3.1H61L62.9,49.4z"/>
	<path class="st0" d="M70.7,53.8h4l3.1,19h-3L74.3,69v0.1h-3.4l-0.5,3.7h-2.8L70.7,53.8z M74,66.5l-1.3-9.4h-0.1l-1.3,9.4H74z"/>
	<path class="st0" d="M79.3,53.8h3v16.3h4.9v2.7h-7.9V53.8z"/>
</g>
<g>
	<path class="st0" d="M43.7,83.1h1.8l1.4,9h-1.3l-0.2-1.8v0h-1.5l-0.2,1.8h-1.2L43.7,83.1z M43.1,81h1.4l0.8,1.5h-1L43.1,81z
		 M45.1,89.1l-0.6-4.4h0L44,89.1H45.1z"/>
	<path class="st0" d="M50.4,83.1h1.8l1.4,9h-1.3L52,90.3v0h-1.5l-0.2,1.8H49L50.4,83.1z M51.8,89.1l-0.6-4.4h0l-0.6,4.4H51.8z"/>
	<path class="st0" d="M54.6,84.4h-1.4v-1.3h4v1.3h-1.4v7.7h-1.3L54.6,84.4L54.6,84.4z"/>
	<path class="st0" d="M59,84.4h-1.4v-1.3h4v1.3h-1.4v7.7h-1.3L59,84.4L59,84.4z"/>
	<path class="st0" d="M62.3,83.1h3.6v1.3h-2.3v2.4h1.8V88h-1.8v2.8h2.3v1.3h-3.6V83.1z"/>
	<path class="st0" d="M66.7,83.1H68v9h-1.3V83.1z"/>
	<path class="st0" d="M68.9,83.1h1.6l1.3,5.4h0v-5.4H73v9h-1.3l-1.6-6.6h0v6.6h-1.2V83.1z"/>
	<path class="st0" d="M74,83.1h2c0.6,0,1.1,0.2,1.5,0.6s0.5,0.9,0.5,1.7v4.5c0,0.7-0.2,1.3-0.5,1.7c-0.3,0.4-0.8,0.6-1.5,0.6h-2
		V83.1z M76,90.8c0.2,0,0.4-0.1,0.5-0.2c0.1-0.1,0.2-0.4,0.2-0.7v-4.7c0-0.3-0.1-0.5-0.2-0.7c-0.1-0.1-0.3-0.2-0.5-0.2h-0.7v6.4
		L76,90.8L76,90.8z"/>
	<path class="st0" d="M78.8,83.1h1.9c0.7,0,1.2,0.2,1.5,0.5c0.3,0.3,0.5,0.9,0.5,1.6v0.6c0,0.9-0.3,1.5-0.9,1.8v0
		c0.3,0.1,0.5,0.3,0.7,0.6c0.1,0.3,0.2,0.7,0.2,1.3V91c0,0.3,0,0.5,0,0.6c0,0.2,0.1,0.3,0.1,0.5h-1.3c0-0.1-0.1-0.3-0.1-0.4
		c0-0.1,0-0.4,0-0.7v-1.6c0-0.4-0.1-0.7-0.2-0.9s-0.3-0.2-0.6-0.2h-0.5v3.8h-1.3V83.1z M80.6,86.9c0.3,0,0.5-0.1,0.6-0.2
		c0.1-0.1,0.2-0.4,0.2-0.7v-0.7c0-0.3-0.1-0.6-0.2-0.7c-0.1-0.1-0.3-0.2-0.5-0.2h-0.6v2.6L80.6,86.9L80.6,86.9z"/>
	<path class="st0" d="M83.6,83.1h3.6v1.3h-2.3v2.4h1.8V88h-1.8v2.8h2.3v1.3h-3.6V83.1z"/>
</g>
<g>
	<path class="st0" d="M55.7,95.1h1.1c0.4,0,0.6,0.1,0.8,0.3c0.2,0.2,0.3,0.5,0.3,0.8v0.5c0,0.4-0.1,0.7-0.3,0.8
		c-0.2,0.2-0.4,0.3-0.8,0.3h-0.3v1.9h-0.7V95.1z M56.7,97.2c0.1,0,0.2,0,0.3-0.1c0.1-0.1,0.1-0.2,0.1-0.3v-0.5c0-0.2,0-0.3-0.1-0.3
		c-0.1-0.1-0.1-0.1-0.3-0.1h-0.3v1.4H56.7z"/>
	<path class="st0" d="M58.5,95.1h1l0.7,4.6h-0.7l-0.1-0.9v0h-0.8l-0.1,0.9h-0.7L58.5,95.1z M59.3,98.2L59,95.9h0l-0.3,2.3H59.3z"/>
	<path class="st0" d="M60.6,95.1h1.1c0.4,0,0.6,0.1,0.8,0.3c0.2,0.2,0.3,0.4,0.3,0.8v0.3c0,0.5-0.2,0.8-0.5,0.9v0
		c0.2,0.1,0.3,0.2,0.4,0.3s0.1,0.4,0.1,0.6v0.8c0,0.1,0,0.2,0,0.3c0,0.1,0,0.2,0.1,0.2h-0.7c0-0.1,0-0.1-0.1-0.2c0-0.1,0-0.2,0-0.4
		v-0.8c0-0.2,0-0.4-0.1-0.4s-0.2-0.1-0.4-0.1h-0.2v2h-0.7L60.6,95.1L60.6,95.1z M61.6,97.1c0.1,0,0.3,0,0.3-0.1
		c0.1-0.1,0.1-0.2,0.1-0.4v-0.4c0-0.2,0-0.3-0.1-0.4c-0.1-0.1-0.2-0.1-0.3-0.1h-0.3v1.3H61.6L61.6,97.1z"/>
	<path class="st0" d="M64.8,95.8h-0.8v-0.7h2.2v0.7h-0.8v3.9h-0.7V95.8z"/>
	<path class="st0" d="M66.8,99.5c-0.2-0.2-0.3-0.5-0.3-0.8v-2.4c0-0.4,0.1-0.6,0.3-0.8c0.2-0.2,0.5-0.3,0.8-0.3
		c0.4,0,0.6,0.1,0.8,0.3c0.2,0.2,0.3,0.5,0.3,0.8v2.4c0,0.4-0.1,0.6-0.3,0.8s-0.5,0.3-0.8,0.3C67.3,99.8,67,99.7,66.8,99.5z
		 M68,98.7v-2.5c0-0.3-0.1-0.5-0.4-0.5s-0.4,0.2-0.4,0.5v2.5c0,0.3,0.1,0.5,0.4,0.5S68,99,68,98.7z"/>
	<path class="st0" d="M69.5,99.5c-0.2-0.2-0.3-0.5-0.3-0.8v-3.5h0.7v3.5c0,0.2,0,0.3,0.1,0.3c0.1,0.1,0.2,0.1,0.3,0.1
		c0.1,0,0.2,0,0.3-0.1c0.1-0.1,0.1-0.2,0.1-0.3v-3.5h0.7v3.5c0,0.4-0.1,0.7-0.3,0.8c-0.2,0.2-0.5,0.3-0.8,0.3
		C69.9,99.8,69.7,99.7,69.5,99.5z"/>
	<path class="st0" d="M72,99.5c-0.2-0.2-0.3-0.5-0.3-0.8v-0.3h0.7v0.3c0,0.3,0.1,0.4,0.4,0.4c0.1,0,0.2,0,0.3-0.1
		c0.1-0.1,0.1-0.2,0.1-0.4c0-0.2,0-0.4-0.1-0.5c-0.1-0.1-0.2-0.3-0.5-0.5c-0.3-0.3-0.5-0.5-0.6-0.7c-0.1-0.2-0.2-0.5-0.2-0.7
		c0-0.4,0.1-0.6,0.3-0.8c0.2-0.2,0.5-0.3,0.8-0.3c0.3,0,0.6,0.1,0.8,0.3c0.2,0.2,0.3,0.5,0.3,0.9v0.2h-0.7v-0.2c0-0.2,0-0.3-0.1-0.3
		c-0.1-0.1-0.2-0.1-0.3-0.1c-0.2,0-0.4,0.1-0.4,0.4c0,0.2,0,0.3,0.1,0.5c0.1,0.1,0.2,0.3,0.5,0.5c0.3,0.3,0.5,0.5,0.6,0.7
		c0.1,0.2,0.2,0.5,0.2,0.8c0,0.4-0.1,0.7-0.3,0.9c-0.2,0.2-0.5,0.3-0.8,0.3C72.4,99.8,72.2,99.7,72,99.5z"/>
</g>
<g>
	<path class="st0" d="M56.5,79.8c-0.2-0.2-0.3-0.5-0.3-0.8v-2.5c0-0.4,0.1-0.6,0.3-0.8c0.2-0.2,0.4-0.3,0.8-0.3s0.6,0.1,0.8,0.3
		c0.2,0.2,0.3,0.5,0.3,0.8V77h-0.7v-0.5c0-0.3-0.1-0.4-0.4-0.4c-0.2,0-0.4,0.1-0.4,0.4V79c0,0.3,0.1,0.4,0.4,0.4
		c0.2,0,0.4-0.1,0.4-0.4v-0.7h0.7V79c0,0.4-0.1,0.6-0.3,0.8c-0.2,0.2-0.4,0.3-0.8,0.3C57,80.1,56.7,80,56.5,79.8z"/>
	<path class="st0" d="M59,79.8c-0.2-0.2-0.3-0.5-0.3-0.8v-2.4c0-0.4,0.1-0.6,0.3-0.8c0.2-0.2,0.5-0.3,0.8-0.3s0.6,0.1,0.8,0.3
		s0.3,0.5,0.3,0.8v2.4c0,0.4-0.1,0.6-0.3,0.8s-0.5,0.3-0.8,0.3S59.2,80,59,79.8z M60.2,79v-2.5c0-0.3-0.1-0.5-0.4-0.5
		c-0.2,0-0.4,0.2-0.4,0.5V79c0,0.3,0.1,0.5,0.4,0.5C60.1,79.4,60.2,79.3,60.2,79z"/>
	<path class="st0" d="M61.4,75.5h1l0.5,3.3h0l0.5-3.3h1V80h-0.7v-3.5h0L63.2,80h-0.6L62,76.6h0V80h-0.6V75.5z"/>
	<path class="st0" d="M64.9,75.5h1l0.5,3.3h0l0.5-3.3h1V80h-0.7v-3.5h0L66.7,80h-0.6l-0.5-3.5h0V80h-0.6V75.5z"/>
	<path class="st0" d="M68.7,79.8c-0.2-0.2-0.3-0.5-0.3-0.9v-3.5h0.7V79c0,0.2,0,0.3,0.1,0.3c0.1,0.1,0.2,0.1,0.3,0.1
		c0.1,0,0.2,0,0.3-0.1c0.1-0.1,0.1-0.2,0.1-0.3v-3.5h0.7v3.5c0,0.4-0.1,0.7-0.3,0.9c-0.2,0.2-0.5,0.3-0.8,0.3
		C69.1,80.1,68.9,80,68.7,79.8z"/>
	<path class="st0" d="M71,75.5h0.9l0.7,2.7h0v-2.7h0.6V80h-0.7l-0.9-3.3h0V80H71V75.5z"/>
</g>
</svg>
